<?xml version="1.0" standalone="no"?>
<!DOCTYPE svg PUBLIC "-//W3C//DTD SVG 20010904//EN"
 "http://www.w3.org/TR/2001/REC-SVG-20010904/DTD/svg10.dtd">
<svg version="1.0" xmlns="http://www.w3.org/2000/svg"
 width="225.000000pt" height="225.000000pt" viewBox="0 0 225.000000 225.000000"
 preserveAspectRatio="xMidYMid meet">
<metadata>
Created by potrace 1.10, written by Peter Selinger 2001-2011
</metadata>
<g transform="translate(0.000000,225.000000) scale(0.100000,-0.100000)"
fill="#340651" stroke="none">
<path d="M45 2208 c-3 -7 -4 -499 -3 -1093 l3 -1080 1085 0 1085 0 0 1090 0
1090 -1083 3 c-861 2 -1084 0 -1087 -10z m255 -721 c74 -23 75 -24 78 -60 2
-20 1 -37 -1 -37 -2 0 -29 9 -60 19 l-57 20 0 -39 c0 -35 3 -39 35 -50 31 -10
35 -16 35 -46 0 -37 -5 -39 -44 -24 l-26 10 0 -69 c0 -37 -3 -70 -6 -74 -3 -3
-17 -1 -30 5 l-24 11 0 179 c0 136 3 178 13 178 6 0 46 -11 87 -23z m272 -104
c42 -41 66 -85 84 -158 9 -37 12 -43 13 -22 3 71 66 137 130 137 131 0 258
-193 222 -337 -15 -58 -62 -110 -107 -119 -100 -19 -222 100 -243 235 l-8 46
-12 -44 c-18 -62 -59 -101 -108 -101 -99 0 -184 117 -185 256 -1 87 28 136 89
153 41 11 82 -4 125 -46z m1488 19 c0 -4 -18 -62 -40 -127 -32 -95 -40 -133
-40 -192 0 -61 -3 -74 -19 -83 -11 -5 -22 -10 -25 -10 -3 0 -6 33 -6 74 0 67
-4 84 -45 173 -43 91 -45 98 -29 110 34 25 50 15 76 -49 l25 -62 27 82 c15 44
33 83 39 86 19 7 37 7 37 -2z m-204 -247 c51 -169 52 -170 32 -187 -31 -27
-46 -22 -54 17 -3 20 -9 35 -13 33 -4 -2 -28 -12 -54 -23 -26 -11 -49 -27 -51
-35 -3 -8 -10 -33 -15 -56 -10 -37 -39 -64 -71 -64 -5 0 -23 62 -41 138 l-33
137 -18 -105 c-9 -58 -22 -136 -29 -173 -10 -64 -13 -69 -49 -87 -29 -15 -40
-17 -47 -7 -6 7 -31 89 -57 183 l-48 170 -45 12 c-25 7 -47 11 -49 10 -1 -2
-6 -80 -9 -173 -4 -94 -8 -176 -11 -183 -3 -10 -12 -9 -41 3 -20 9 -39 18 -41
20 -2 2 -4 87 -3 188 l2 183 -55 18 c-57 17 -77 43 -62 81 8 21 24 19 181 -29
118 -36 145 -41 173 -32 20 6 36 6 41 0 4 -5 18 -58 31 -119 12 -60 26 -118
29 -128 4 -10 17 43 30 125 13 79 27 150 32 159 7 13 78 43 86 35 2 -1 15 -60
30 -130 15 -70 30 -121 34 -114 3 7 22 75 40 152 27 111 38 140 54 147 43 17
49 8 101 -166z"/>
<path d="M430 1318 c-23 -38 -24 -57 -9 -113 13 -46 68 -105 98 -105 39 0 71
43 71 96 0 121 -110 204 -160 122z"/>
<path d="M761 1226 c-61 -65 -18 -203 76 -242 67 -28 121 28 109 114 -16 114
-126 191 -185 128z"/>
<path d="M1766 1180 c-6 -16 -25 -100 -26 -113 0 -4 14 -1 30 8 35 18 34 16
16 75 -9 28 -16 39 -20 30z"/>
</g>
</svg>